<svg width="479" height="311" viewBox="0 0 479 311" fill="none" xmlns="http://www.w3.org/2000/svg">
    <path d="M422.115 46.301C416.214 51.1077 406.678 52.2272 399.555 53.51C380.241 56.9882 360.735 59.0234 341.537 63.2247C337.397 64.1305 319.894 65.6211 320.513 72.9906C321.357 83.0438 323.344 92.6105 323.71 102.817C324.853 134.644 322.863 166.649 316.699 197.931C316.077 201.093 311.777 228.032 303.317 233.126C295.644 237.746 285.124 211.862 283.466 208.904C277.726 198.666 273.733 187.153 262.286 181.9C239.93 171.643 206.658 166.681 182.725 173.048C136.999 185.215 153.987 248.572 115.317 268.049C103.821 273.84 89.5843 269.279 77.957 267.212C65.9259 265.074 55 265.507 43.0002 264.745" stroke="#F3F0EB" stroke-width="80" stroke-linecap="square"/>
</svg>
