<svg width="78" height="78" viewBox="0 0 78 78" fill="none" xmlns="http://www.w3.org/2000/svg">
    <path d="M42.6985 49.6428C41.1078 49.704 40.0269 50.0252 39.0939 50.3872C37.4726 51.05 35.8463 51.7841 34.5819 52.814C33.1696 53.9917 32.4609 55.1389 32.4609 56.2554C32.4609 57.5249 33.0014 58.6262 34.0822 59.5592C35.1937 60.5533 36.4275 61.053 37.7785 61.053C41.1741 61.053 42.8718 58.3661 42.8718 52.9925C42.8718 52.9313 42.8565 52.6916 42.8259 52.2685C42.7953 51.8453 42.7495 50.9684 42.6883 49.6428H42.6985ZM37.7836 58.2897C35.1937 58.6822 35.0866 56.9437 35.2243 56.2503C35.2243 56.2503 35.316 55.7966 36.3357 54.94C37.3146 54.1498 38.7268 53.5176 40.1085 52.9466C40.1085 52.9823 40.1085 53.0077 40.1136 53.0332C40.1034 58.2846 38.5586 58.1673 37.7785 58.2846L37.7836 58.2897Z" fill="#3D3D3D"/>
    <path d="M62.2611 31.5691C59.3907 30.4373 57.5502 34.3528 57.5502 34.3528C57.5502 34.3528 57.6317 33.4657 57.8612 32.7978C58.1772 31.8852 58.2843 30.6769 57.9631 29.6623C57.4686 28.0716 57.0352 27.3069 56.5764 26.6033C56.1787 25.9915 55.7045 25.4612 55.1641 25.0177C54.6339 24.5792 54.0476 24.2223 53.4307 23.9623C52.7067 23.6564 52.0031 23.5086 51.325 23.5086C50.0402 23.5086 48.8778 24.0949 48.0519 25.1553C47.6593 25.6601 47.3228 26.1699 47.0526 26.6747C47.0424 26.7002 47.0271 26.7205 47.0169 26.746C46.8844 27.0163 46.7416 27.3273 46.5989 27.6892C46.4459 27.2559 46.242 26.8378 45.9819 26.435C45.5741 25.8079 45.0846 25.2624 44.5238 24.7985C43.9732 24.3447 43.3716 23.9725 42.7343 23.7023C41.9899 23.3913 41.266 23.2333 40.5675 23.2333C39.2572 23.2333 38.0744 23.8298 37.2331 24.9106C36.8202 25.4409 36.4684 25.9711 36.188 26.5013C36.1676 26.5421 36.1421 26.588 36.1217 26.6288C35.8515 27.1998 35.5762 27.8524 35.2958 28.5764C35.1938 28.8364 35.0969 29.1168 35.0001 29.4074C34.4035 28.6987 33.547 28.0053 32.3234 27.4088C32.3132 27.4088 32.3081 27.3986 32.2979 27.3986C32.3846 26.6135 32.3999 26.0476 32.3591 25.5887C32.303 24.7985 32.1399 24.1204 31.8544 23.5239C31.5637 22.907 31.1967 22.3971 30.7633 22.0046C30.2535 21.5406 29.6774 21.2296 29.0503 21.0716C28.6475 20.9696 28.2804 20.9186 27.9286 20.9186C27.3882 20.9186 26.8274 20.9135 26.3073 21.0716C25.8485 21.2143 25.0072 21.6732 24.7013 22.3512C24.4209 22.963 23.9978 24.0184 24.3292 25.6652C24.1609 25.4765 23.6511 24.8749 23.3452 24.9208C21.9074 25.1299 20.7093 25.0126 19.1951 25.2522C18.1448 25.4205 18.0531 27.99 15.9984 29.4941C12.5927 31.9872 13.7093 34.7505 15.5396 34.4446C16.5337 34.2763 17.8032 34.2916 17.8695 35.0156C18.1142 37.8554 18.1448 38.7476 18.3233 40.6952C18.3284 40.7615 18.3386 40.8277 18.3488 40.894C18.4456 41.4956 18.6955 42.0412 19.0574 42.5051C18.466 43.3412 18.155 44.3303 18.2315 45.3908C18.4201 47.9196 20.7858 49.8315 23.7428 49.8315C23.9111 49.8315 24.0793 49.8264 24.2476 49.8111C26.7254 49.6275 28.6781 48.1796 29.3307 46.2626C30.2178 47.3078 31.1916 47.8686 32.0634 48.1592C31.2324 48.6385 30.4982 49.1381 29.8507 49.6683C27.067 51.9677 26.4858 54.4863 26.4858 56.1942C26.4858 59.085 27.6431 61.6495 29.9272 63.8112C32.1399 65.9066 34.791 66.9671 37.8042 66.9671C42.7241 66.9671 45.0846 64.3465 46.1961 62.1491C47.2514 60.0333 47.7613 57.0559 47.7613 53.0231V52.452C49.2908 52.5438 52.0337 52.9619 56.3163 54.42C56.607 54.522 56.9078 54.5679 57.2086 54.5679C57.7796 54.5679 58.3404 54.3945 58.8145 54.0529C59.5385 53.5329 59.9719 52.7019 59.9719 51.8096V49.4083C59.9821 48.1898 59.1816 47.114 58.0141 46.7623C57.9733 46.747 57.9325 46.7368 57.8866 46.7266C58.4373 46.4563 58.9369 46.0638 59.355 45.5539C59.7832 45.0288 60.1554 44.4986 60.4562 43.9683C60.4613 43.9581 60.4664 43.9479 60.4715 43.9378C60.7876 43.3718 61.0068 42.602 61.3943 41.7913C61.8226 40.9042 64.9173 32.6143 62.2611 31.5691ZM24.0538 46.9815C22.4479 47.0987 21.0815 46.2626 20.9948 45.1155C20.9082 43.9632 22.142 42.9385 23.7479 42.8161C25.3539 42.6988 26.7254 43.535 26.8121 44.6872C26.8936 45.8394 25.6649 46.8642 24.0589 46.9866L24.0538 46.9815ZM57.2188 51.7281C57.2188 51.519 55.1386 51.0347 54.8939 50.9633C51.687 50.015 48.3731 49.2859 45.0133 49.7652V52.9517C45.0133 56.5103 44.5901 59.136 43.7438 60.8287C42.6272 63.0312 40.649 64.1324 37.8144 64.1324C35.5201 64.1324 33.5266 63.332 31.8391 61.7311C30.1209 60.0996 29.2593 58.2285 29.2593 56.1178C29.2593 54.4863 30.0444 53.0231 31.6147 51.723C33.7 49.9997 36.3664 48.9087 38.9564 48.1949C40.0169 47.9043 41.0773 47.8176 42.148 47.6188C42.0868 47.6086 41.7146 44.7178 41.8472 44.4782C41.1538 45.7426 40.3686 46.3799 39.4917 46.3799C38.314 46.3799 37.3504 45.7936 36.5958 44.6158C36.3613 44.2437 36.1829 43.8205 36.035 43.3718C35.826 43.795 35.6272 44.157 35.4436 44.4374C34.9032 45.2633 34.2149 45.7783 33.2054 45.5335C32.2622 45.3041 31.5587 44.5852 31.0182 43.8103C30.3096 42.7906 30.2688 41.4854 30.2637 40.2873C30.2586 39.0127 30.2637 37.7381 30.2688 36.4635C30.2688 35.3011 30.4013 34.1336 30.2586 32.9762C30.177 32.3135 29.6009 31.9158 29.0859 31.5742C29.0401 31.824 28.9381 32.2115 28.8055 32.6856C28.3467 34.3018 27.847 35.9027 27.3576 37.5087C27.0109 38.6507 26.7254 40.1191 25.6445 40.8125C24.9308 41.2713 23.8703 41.1387 23.0597 41.1948C22.7436 41.2203 22.4173 41.2407 22.1063 41.1846C21.2803 41.0419 21.0764 40.425 21.005 39.6806C20.9336 38.9668 20.9183 38.248 20.8572 37.5342C20.8572 36.7796 20.7348 36.0047 20.6736 35.2501C20.6175 34.5058 20.5564 33.7665 20.5003 33.0221C20.4289 32.0687 20.3065 31.6099 20.225 31.3397C20.0312 30.7177 19.5826 31.6252 19.0421 31.8189C18.2315 32.1095 17.6401 31.9974 17.4617 31.7781C17.0895 31.2989 18.5221 30.5239 19.0829 29.8051C19.7661 28.923 19.9904 27.73 20.898 27.7555L22.4785 27.6128C22.8506 27.5771 23.1718 27.8779 23.1667 28.2501C23.1514 28.974 23.1361 30.1008 23.1769 30.789C23.2381 31.8597 23.3503 32.9304 23.4267 34.001C23.4879 34.9085 23.5695 35.8211 23.6511 36.7287C23.6817 37.0397 23.7479 37.3456 23.804 37.6515C23.8193 37.7534 23.9927 38.9108 24.1966 38.5947C24.7625 37.6871 25.2724 36.8051 25.614 35.7906C25.981 34.7046 26.2818 33.5932 26.5113 32.4664C26.7203 31.4263 26.9395 30.3455 26.7152 29.285C26.5724 28.612 26.2563 27.99 26.134 27.312C25.8995 25.9915 26.3022 23.2282 28.2549 23.6411C29.2338 23.8451 29.5805 24.8341 29.6519 25.7213C29.6875 26.175 29.6621 26.6339 29.5958 27.0876C29.5193 27.6077 29.2695 28.2246 29.4632 28.7395C29.4989 28.8364 29.606 28.9638 29.6875 29.025C30.8653 29.9427 32.507 30.1874 33.2717 31.6099C34.062 33.0833 33.4756 34.9544 33.2717 36.5043C33.0627 38.1052 32.9301 39.7622 32.8281 41.3886C32.8078 41.7556 32.8383 42.1227 32.9556 42.4694C33.3482 43.6166 33.9549 42.398 34.1129 42.0616C34.4902 41.2764 35.6781 35.7804 36.1472 33.8532C36.7284 31.4722 37.7532 28.8211 39.2113 26.797C39.7313 26.0578 40.389 25.7621 41.2761 26.0272C43.4837 26.69 44.8348 29.1678 44.1567 31.3754C44.0446 31.7424 43.754 32.2625 43.3869 32.4256C42.6017 32.7774 42.566 31.4875 42.5202 31.0593C42.3927 29.8509 41.6891 29.0658 41.3169 29.2646C41.1589 29.3462 40.8326 29.8713 40.6236 30.4424C39.92 32.3542 39.1756 34.3375 38.7372 36.3259C38.2987 38.3193 37.8347 43.4177 39.0431 43.7695C39.6243 43.9378 39.9557 43.173 40.1341 42.7753C40.4298 42.1125 40.7102 41.4395 40.9651 40.7615C41.4342 39.5328 41.837 38.2786 42.1684 37.004C42.2193 36.8051 42.668 34.6638 42.7292 34.6638C43.6571 34.7097 44.5952 34.7454 45.5486 34.7607C45.3446 35.5101 45.1713 36.3157 45.0286 37.1824C44.3964 40.5626 44.534 43.9276 44.7838 47.3384C44.7838 47.3384 45.0286 47.3537 45.0336 47.3537C45.7219 47.3944 46.4255 47.3129 47.1189 47.3282C50.5399 47.4097 53.9813 48.3325 57.2392 49.3216C57.2392 49.3216 57.2392 51.6975 57.2392 51.723L57.2188 51.7281ZM60.1146 38.5386C59.5232 40.0324 58.9624 41.307 58.1467 42.6887C57.4176 43.9174 56.4081 44.8861 54.8429 44.055C53.8079 43.5044 53.2165 42.3216 53.2726 42.1788C52.5283 44.2386 51.4882 45.2633 50.1422 45.2633C49.4845 45.2633 48.8829 45.0186 48.3425 44.5343C47.3126 43.4789 46.8436 41.2611 46.9251 37.8911C46.971 36.0863 47.3075 34.2967 47.797 32.5582C48.266 30.9012 48.8319 29.2035 49.663 27.6841C49.9077 27.2355 50.1575 26.7256 50.5909 26.4248C51.065 26.0985 51.7074 26.1648 52.2224 26.3637C53.6754 26.9194 54.6747 28.2348 54.8276 29.7796C54.9143 30.6259 54.8225 32.0891 53.7927 32.3491C53.3644 32.4562 53.3134 32.0534 53.2624 31.7271C53.191 31.253 53.1401 30.7687 52.9718 30.3149C52.8698 30.0345 52.3396 28.4183 51.8757 29.6368C50.4787 33.328 49.5763 37.1365 49.5763 41.1031C49.5763 41.5619 49.612 42.0259 49.8771 42.3878C50.1728 42.7957 51.0701 42.602 51.4372 41.5874C51.6258 41.0674 52.4773 38.3499 52.62 37.5036C52.7883 36.489 52.9616 35.5662 53.0993 34.5465C53.9507 34.4905 55.7504 34.4089 55.7504 34.4089C55.3935 35.4795 55.1947 36.6012 55.1029 37.7228C54.9908 39.0229 54.7766 41.4141 55.7147 41.8321C56.1226 42.0157 56.3418 41.7607 56.6528 41.1591C57.2392 40.0324 57.6827 38.5845 58.269 37.4577C58.9165 36.2188 59.8801 34.5924 60.3645 34.6587C61.4606 34.8015 60.7162 36.9938 60.1095 38.5284L60.1146 38.5386Z" fill="#3D3D3D"/>
</svg>
